%TF.GenerationSoftware,KiCad,Pcbnew,7.0.10*%
%TF.CreationDate,2024-02-06T21:46:11+00:00*%
%TF.ProjectId,mini_keyboard,6d696e69-5f6b-4657-9962-6f6172642e6b,rev?*%
%TF.SameCoordinates,Original*%
%TF.FileFunction,Copper,L1,Top*%
%TF.FilePolarity,Positive*%
%FSLAX46Y46*%
G04 Gerber Fmt 4.6, Leading zero omitted, Abs format (unit mm)*
G04 Created by KiCad (PCBNEW 7.0.10) date 2024-02-06 21:46:11*
%MOMM*%
%LPD*%
G01*
G04 APERTURE LIST*
%TA.AperFunction,ComponentPad*%
%ADD10C,2.500000*%
%TD*%
%TA.AperFunction,ComponentPad*%
%ADD11R,1.752600X1.752600*%
%TD*%
%TA.AperFunction,ComponentPad*%
%ADD12C,1.752600*%
%TD*%
%TA.AperFunction,Conductor*%
%ADD13C,0.250000*%
%TD*%
G04 APERTURE END LIST*
D10*
%TO.P,S2,1,1*%
%TO.N,GND*%
X172720000Y-96520000D03*
%TO.P,S2,2,2*%
%TO.N,BTN 2*%
X175260000Y-102870000D03*
%TD*%
D11*
%TO.P,U1,1,TX0/PD3*%
%TO.N,unconnected-(U1-TX0{slash}PD3-Pad1)*%
X106750000Y-107950000D03*
D12*
%TO.P,U1,2,RX1/PD2*%
%TO.N,unconnected-(U1-RX1{slash}PD2-Pad2)*%
X109290000Y-107950000D03*
%TO.P,U1,3,GND*%
%TO.N,unconnected-(U1-GND-Pad3)*%
X111830000Y-107950000D03*
%TO.P,U1,4,GND*%
%TO.N,GND*%
X114370000Y-107950000D03*
%TO.P,U1,5,2/PD1*%
%TO.N,BTN 1*%
X116910000Y-107950000D03*
%TO.P,U1,6,3/PD0*%
%TO.N,BTN 2*%
X119450000Y-107950000D03*
%TO.P,U1,7,4/PD4*%
%TO.N,unconnected-(U1-4{slash}PD4-Pad7)*%
X121990000Y-107950000D03*
%TO.P,U1,8,5/PC6*%
%TO.N,unconnected-(U1-5{slash}PC6-Pad8)*%
X124530000Y-107950000D03*
%TO.P,U1,9,6/PD7*%
%TO.N,unconnected-(U1-6{slash}PD7-Pad9)*%
X127070000Y-107950000D03*
%TO.P,U1,10,7/PE6*%
%TO.N,unconnected-(U1-7{slash}PE6-Pad10)*%
X129610000Y-107950000D03*
%TO.P,U1,11,8/PB4*%
%TO.N,unconnected-(U1-8{slash}PB4-Pad11)*%
X132150000Y-107950000D03*
%TO.P,U1,12,9/PB5*%
%TO.N,unconnected-(U1-9{slash}PB5-Pad12)*%
X134690000Y-107950000D03*
%TO.P,U1,13,10/PB6*%
%TO.N,unconnected-(U1-10{slash}PB6-Pad13)*%
X134690000Y-92710000D03*
%TO.P,U1,14,16/PB2*%
%TO.N,unconnected-(U1-16{slash}PB2-Pad14)*%
X132150000Y-92710000D03*
%TO.P,U1,15,14/PB3*%
%TO.N,unconnected-(U1-14{slash}PB3-Pad15)*%
X129610000Y-92710000D03*
%TO.P,U1,16,15/PB1*%
%TO.N,unconnected-(U1-15{slash}PB1-Pad16)*%
X127070000Y-92710000D03*
%TO.P,U1,17,A0/PF7*%
%TO.N,unconnected-(U1-A0{slash}PF7-Pad17)*%
X124530000Y-92710000D03*
%TO.P,U1,18,A1/PF6*%
%TO.N,unconnected-(U1-A1{slash}PF6-Pad18)*%
X121990000Y-92710000D03*
%TO.P,U1,19,A2/PF5*%
%TO.N,unconnected-(U1-A2{slash}PF5-Pad19)*%
X119450000Y-92710000D03*
%TO.P,U1,20,A3/PF4*%
%TO.N,unconnected-(U1-A3{slash}PF4-Pad20)*%
X116910000Y-92710000D03*
%TO.P,U1,21,VCC*%
%TO.N,unconnected-(U1-VCC-Pad21)*%
X114370000Y-92710000D03*
%TO.P,U1,22,RST*%
%TO.N,unconnected-(U1-RST-Pad22)*%
X111830000Y-92710000D03*
%TO.P,U1,23,GND*%
%TO.N,unconnected-(U1-GND-Pad23)*%
X109290000Y-92710000D03*
%TO.P,U1,24,RAW*%
%TO.N,unconnected-(U1-RAW-Pad24)*%
X106750000Y-92710000D03*
%TD*%
D10*
%TO.P,S1,1,1*%
%TO.N,GND*%
X150876000Y-96520000D03*
%TO.P,S1,2,2*%
%TO.N,BTN 1*%
X153416000Y-102870000D03*
%TD*%
D13*
%TO.N,GND*%
X150876000Y-96520000D02*
X125800000Y-96520000D01*
X172720000Y-96520000D02*
X150876000Y-96520000D01*
X125800000Y-96520000D02*
X114370000Y-107950000D01*
%TO.N,BTN 1*%
X153416000Y-102870000D02*
X121990000Y-102870000D01*
X121990000Y-102870000D02*
X116910000Y-107950000D01*
%TO.N,BTN 2*%
X124080000Y-103320000D02*
X119450000Y-107950000D01*
X152763000Y-104445000D02*
X151638000Y-103320000D01*
X155643387Y-102870000D02*
X154068387Y-104445000D01*
X151638000Y-103320000D02*
X124080000Y-103320000D01*
X175260000Y-102870000D02*
X155643387Y-102870000D01*
X154068387Y-104445000D02*
X152763000Y-104445000D01*
%TD*%
%TA.AperFunction,NonConductor*%
G36*
X180349539Y-90190185D02*
G01*
X180395294Y-90242989D01*
X180406500Y-90294500D01*
X180406500Y-110365500D01*
X180386815Y-110432539D01*
X180334011Y-110478294D01*
X180282500Y-110489500D01*
X102299500Y-110489500D01*
X102232461Y-110469815D01*
X102186706Y-110417011D01*
X102175500Y-110365500D01*
X102175500Y-108874170D01*
X105373200Y-108874170D01*
X105373201Y-108874176D01*
X105379608Y-108933783D01*
X105429902Y-109068628D01*
X105429906Y-109068635D01*
X105516152Y-109183844D01*
X105516155Y-109183847D01*
X105631364Y-109270093D01*
X105631371Y-109270097D01*
X105766217Y-109320391D01*
X105766216Y-109320391D01*
X105773144Y-109321135D01*
X105825827Y-109326800D01*
X107674172Y-109326799D01*
X107733783Y-109320391D01*
X107868631Y-109270096D01*
X107983846Y-109183846D01*
X108070096Y-109068631D01*
X108108586Y-108965434D01*
X108150457Y-108909500D01*
X108215921Y-108885083D01*
X108284194Y-108899934D01*
X108315994Y-108924781D01*
X108354323Y-108966417D01*
X108534381Y-109106561D01*
X108735050Y-109215158D01*
X108950857Y-109289245D01*
X109175915Y-109326800D01*
X109404085Y-109326800D01*
X109629143Y-109289245D01*
X109844950Y-109215158D01*
X110045619Y-109106561D01*
X110225677Y-108966417D01*
X110380213Y-108798547D01*
X110456191Y-108682252D01*
X110509337Y-108636896D01*
X110578568Y-108627472D01*
X110641904Y-108656973D01*
X110663809Y-108682253D01*
X110739787Y-108798548D01*
X110864281Y-108933783D01*
X110894323Y-108966417D01*
X111074381Y-109106561D01*
X111275050Y-109215158D01*
X111490857Y-109289245D01*
X111715915Y-109326800D01*
X111944085Y-109326800D01*
X112169143Y-109289245D01*
X112384950Y-109215158D01*
X112585619Y-109106561D01*
X112765677Y-108966417D01*
X112920213Y-108798547D01*
X112996191Y-108682252D01*
X113049337Y-108636896D01*
X113118568Y-108627472D01*
X113181904Y-108656973D01*
X113203809Y-108682253D01*
X113279787Y-108798548D01*
X113404281Y-108933783D01*
X113434323Y-108966417D01*
X113614381Y-109106561D01*
X113815050Y-109215158D01*
X114030857Y-109289245D01*
X114255915Y-109326800D01*
X114484085Y-109326800D01*
X114709143Y-109289245D01*
X114924950Y-109215158D01*
X115125619Y-109106561D01*
X115305677Y-108966417D01*
X115460213Y-108798547D01*
X115536191Y-108682252D01*
X115589337Y-108636896D01*
X115658568Y-108627472D01*
X115721904Y-108656973D01*
X115743809Y-108682253D01*
X115819787Y-108798548D01*
X115944281Y-108933783D01*
X115974323Y-108966417D01*
X116154381Y-109106561D01*
X116355050Y-109215158D01*
X116570857Y-109289245D01*
X116795915Y-109326800D01*
X117024085Y-109326800D01*
X117249143Y-109289245D01*
X117464950Y-109215158D01*
X117665619Y-109106561D01*
X117845677Y-108966417D01*
X118000213Y-108798547D01*
X118076191Y-108682252D01*
X118129337Y-108636896D01*
X118198568Y-108627472D01*
X118261904Y-108656973D01*
X118283809Y-108682253D01*
X118359787Y-108798548D01*
X118484281Y-108933783D01*
X118514323Y-108966417D01*
X118694381Y-109106561D01*
X118895050Y-109215158D01*
X119110857Y-109289245D01*
X119335915Y-109326800D01*
X119564085Y-109326800D01*
X119789143Y-109289245D01*
X120004950Y-109215158D01*
X120205619Y-109106561D01*
X120385677Y-108966417D01*
X120540213Y-108798547D01*
X120616191Y-108682252D01*
X120669337Y-108636896D01*
X120738568Y-108627472D01*
X120801904Y-108656973D01*
X120823809Y-108682253D01*
X120899787Y-108798548D01*
X121024281Y-108933783D01*
X121054323Y-108966417D01*
X121234381Y-109106561D01*
X121435050Y-109215158D01*
X121650857Y-109289245D01*
X121875915Y-109326800D01*
X122104085Y-109326800D01*
X122329143Y-109289245D01*
X122544950Y-109215158D01*
X122745619Y-109106561D01*
X122925677Y-108966417D01*
X123080213Y-108798547D01*
X123156191Y-108682252D01*
X123209337Y-108636896D01*
X123278568Y-108627472D01*
X123341904Y-108656973D01*
X123363809Y-108682253D01*
X123439787Y-108798548D01*
X123564281Y-108933783D01*
X123594323Y-108966417D01*
X123774381Y-109106561D01*
X123975050Y-109215158D01*
X124190857Y-109289245D01*
X124415915Y-109326800D01*
X124644085Y-109326800D01*
X124869143Y-109289245D01*
X125084950Y-109215158D01*
X125285619Y-109106561D01*
X125465677Y-108966417D01*
X125620213Y-108798547D01*
X125696191Y-108682252D01*
X125749337Y-108636896D01*
X125818568Y-108627472D01*
X125881904Y-108656973D01*
X125903809Y-108682253D01*
X125979787Y-108798548D01*
X126104281Y-108933783D01*
X126134323Y-108966417D01*
X126314381Y-109106561D01*
X126515050Y-109215158D01*
X126730857Y-109289245D01*
X126955915Y-109326800D01*
X127184085Y-109326800D01*
X127409143Y-109289245D01*
X127624950Y-109215158D01*
X127825619Y-109106561D01*
X128005677Y-108966417D01*
X128160213Y-108798547D01*
X128236191Y-108682252D01*
X128289337Y-108636896D01*
X128358568Y-108627472D01*
X128421904Y-108656973D01*
X128443809Y-108682253D01*
X128519787Y-108798548D01*
X128644281Y-108933783D01*
X128674323Y-108966417D01*
X128854381Y-109106561D01*
X129055050Y-109215158D01*
X129270857Y-109289245D01*
X129495915Y-109326800D01*
X129724085Y-109326800D01*
X129949143Y-109289245D01*
X130164950Y-109215158D01*
X130365619Y-109106561D01*
X130545677Y-108966417D01*
X130700213Y-108798547D01*
X130776191Y-108682252D01*
X130829337Y-108636896D01*
X130898568Y-108627472D01*
X130961904Y-108656973D01*
X130983809Y-108682253D01*
X131059787Y-108798548D01*
X131184281Y-108933783D01*
X131214323Y-108966417D01*
X131394381Y-109106561D01*
X131595050Y-109215158D01*
X131810857Y-109289245D01*
X132035915Y-109326800D01*
X132264085Y-109326800D01*
X132489143Y-109289245D01*
X132704950Y-109215158D01*
X132905619Y-109106561D01*
X133085677Y-108966417D01*
X133240213Y-108798547D01*
X133316191Y-108682252D01*
X133369337Y-108636896D01*
X133438568Y-108627472D01*
X133501904Y-108656973D01*
X133523809Y-108682253D01*
X133599787Y-108798548D01*
X133724281Y-108933783D01*
X133754323Y-108966417D01*
X133934381Y-109106561D01*
X134135050Y-109215158D01*
X134350857Y-109289245D01*
X134575915Y-109326800D01*
X134804085Y-109326800D01*
X135029143Y-109289245D01*
X135244950Y-109215158D01*
X135445619Y-109106561D01*
X135625677Y-108966417D01*
X135780213Y-108798547D01*
X135905010Y-108607530D01*
X135996664Y-108398578D01*
X136052677Y-108177391D01*
X136071519Y-107950000D01*
X136052677Y-107722609D01*
X135996664Y-107501422D01*
X135905010Y-107292470D01*
X135780213Y-107101453D01*
X135780212Y-107101451D01*
X135625680Y-106933586D01*
X135625676Y-106933582D01*
X135445620Y-106793440D01*
X135445619Y-106793439D01*
X135244950Y-106684842D01*
X135244942Y-106684839D01*
X135029145Y-106610755D01*
X134804085Y-106573200D01*
X134575915Y-106573200D01*
X134350854Y-106610755D01*
X134135057Y-106684839D01*
X134135049Y-106684842D01*
X133934379Y-106793440D01*
X133754323Y-106933582D01*
X133754319Y-106933586D01*
X133599787Y-107101451D01*
X133523809Y-107217746D01*
X133470663Y-107263103D01*
X133401431Y-107272527D01*
X133338095Y-107243025D01*
X133316191Y-107217746D01*
X133240212Y-107101451D01*
X133085680Y-106933586D01*
X133085676Y-106933582D01*
X132905620Y-106793440D01*
X132905619Y-106793439D01*
X132704950Y-106684842D01*
X132704942Y-106684839D01*
X132489145Y-106610755D01*
X132264085Y-106573200D01*
X132035915Y-106573200D01*
X131810854Y-106610755D01*
X131595057Y-106684839D01*
X131595049Y-106684842D01*
X131394379Y-106793440D01*
X131214323Y-106933582D01*
X131214319Y-106933586D01*
X131059787Y-107101451D01*
X130983809Y-107217746D01*
X130930663Y-107263103D01*
X130861431Y-107272527D01*
X130798095Y-107243025D01*
X130776191Y-107217746D01*
X130700212Y-107101451D01*
X130545680Y-106933586D01*
X130545676Y-106933582D01*
X130365620Y-106793440D01*
X130365619Y-106793439D01*
X130164950Y-106684842D01*
X130164942Y-106684839D01*
X129949145Y-106610755D01*
X129724085Y-106573200D01*
X129495915Y-106573200D01*
X129270854Y-106610755D01*
X129055057Y-106684839D01*
X129055049Y-106684842D01*
X128854379Y-106793440D01*
X128674323Y-106933582D01*
X128674319Y-106933586D01*
X128519787Y-107101451D01*
X128443809Y-107217746D01*
X128390663Y-107263103D01*
X128321431Y-107272527D01*
X128258095Y-107243025D01*
X128236191Y-107217746D01*
X128160212Y-107101451D01*
X128005680Y-106933586D01*
X128005676Y-106933582D01*
X127825620Y-106793440D01*
X127825619Y-106793439D01*
X127624950Y-106684842D01*
X127624942Y-106684839D01*
X127409145Y-106610755D01*
X127184085Y-106573200D01*
X126955915Y-106573200D01*
X126730854Y-106610755D01*
X126515057Y-106684839D01*
X126515049Y-106684842D01*
X126314379Y-106793440D01*
X126134323Y-106933582D01*
X126134319Y-106933586D01*
X125979787Y-107101451D01*
X125903809Y-107217746D01*
X125850663Y-107263103D01*
X125781431Y-107272527D01*
X125718095Y-107243025D01*
X125696191Y-107217746D01*
X125620212Y-107101451D01*
X125465680Y-106933586D01*
X125465676Y-106933582D01*
X125285620Y-106793440D01*
X125285619Y-106793439D01*
X125084950Y-106684842D01*
X125084942Y-106684839D01*
X124869145Y-106610755D01*
X124644085Y-106573200D01*
X124415915Y-106573200D01*
X124190854Y-106610755D01*
X123975057Y-106684839D01*
X123975049Y-106684842D01*
X123774379Y-106793440D01*
X123594323Y-106933582D01*
X123594319Y-106933586D01*
X123439787Y-107101451D01*
X123363809Y-107217746D01*
X123310663Y-107263103D01*
X123241431Y-107272527D01*
X123178095Y-107243025D01*
X123156191Y-107217746D01*
X123080212Y-107101451D01*
X122925680Y-106933586D01*
X122925676Y-106933582D01*
X122745620Y-106793440D01*
X122745619Y-106793439D01*
X122544950Y-106684842D01*
X122544942Y-106684839D01*
X122329145Y-106610755D01*
X122104085Y-106573200D01*
X122010751Y-106573200D01*
X121943712Y-106553515D01*
X121897957Y-106500711D01*
X121888013Y-106431553D01*
X121917038Y-106367997D01*
X121923070Y-106361519D01*
X122928388Y-105356202D01*
X147206660Y-105356202D01*
X147216887Y-105570901D01*
X147242519Y-105676557D01*
X147267563Y-105779790D01*
X147356854Y-105975310D01*
X147421309Y-106065824D01*
X147481535Y-106150400D01*
X147481540Y-106150406D01*
X147637094Y-106298725D01*
X147637096Y-106298726D01*
X147637097Y-106298727D01*
X147817920Y-106414935D01*
X148017468Y-106494822D01*
X148122998Y-106515161D01*
X148228527Y-106535500D01*
X148228528Y-106535500D01*
X148389612Y-106535500D01*
X148389618Y-106535500D01*
X148549971Y-106520188D01*
X148756209Y-106459631D01*
X148947259Y-106361138D01*
X149116217Y-106228268D01*
X149256976Y-106065824D01*
X149364448Y-105879677D01*
X149434750Y-105676554D01*
X149465339Y-105463797D01*
X149460214Y-105356202D01*
X169050660Y-105356202D01*
X169060887Y-105570901D01*
X169086519Y-105676557D01*
X169111563Y-105779790D01*
X169200854Y-105975310D01*
X169265309Y-106065824D01*
X169325535Y-106150400D01*
X169325540Y-106150406D01*
X169481094Y-106298725D01*
X169481096Y-106298726D01*
X169481097Y-106298727D01*
X169661920Y-106414935D01*
X169861468Y-106494822D01*
X169966998Y-106515161D01*
X170072527Y-106535500D01*
X170072528Y-106535500D01*
X170233612Y-106535500D01*
X170233618Y-106535500D01*
X170393971Y-106520188D01*
X170600209Y-106459631D01*
X170791259Y-106361138D01*
X170960217Y-106228268D01*
X171100976Y-106065824D01*
X171208448Y-105879677D01*
X171278750Y-105676554D01*
X171309339Y-105463797D01*
X171299112Y-105249096D01*
X171248437Y-105040210D01*
X171159146Y-104844690D01*
X171034466Y-104669601D01*
X171034464Y-104669599D01*
X171034459Y-104669593D01*
X170878905Y-104521274D01*
X170698080Y-104405065D01*
X170498530Y-104325177D01*
X170287473Y-104284500D01*
X170287472Y-104284500D01*
X170126382Y-104284500D01*
X169966029Y-104299812D01*
X169966025Y-104299813D01*
X169759793Y-104360368D01*
X169568736Y-104458864D01*
X169399785Y-104591729D01*
X169399782Y-104591733D01*
X169259021Y-104754178D01*
X169151553Y-104940319D01*
X169081251Y-105143442D01*
X169081250Y-105143444D01*
X169050661Y-105356200D01*
X169050660Y-105356202D01*
X149460214Y-105356202D01*
X149455112Y-105249096D01*
X149404437Y-105040210D01*
X149315146Y-104844690D01*
X149190466Y-104669601D01*
X149190464Y-104669599D01*
X149190459Y-104669593D01*
X149034905Y-104521274D01*
X148854080Y-104405065D01*
X148654530Y-104325177D01*
X148443473Y-104284500D01*
X148443472Y-104284500D01*
X148282382Y-104284500D01*
X148122029Y-104299812D01*
X148122025Y-104299813D01*
X147915793Y-104360368D01*
X147724736Y-104458864D01*
X147555785Y-104591729D01*
X147555782Y-104591733D01*
X147415021Y-104754178D01*
X147307553Y-104940319D01*
X147237251Y-105143442D01*
X147237250Y-105143444D01*
X147206661Y-105356200D01*
X147206660Y-105356202D01*
X122928388Y-105356202D01*
X123035492Y-105249098D01*
X124302771Y-103981819D01*
X124364094Y-103948334D01*
X124390452Y-103945500D01*
X151327548Y-103945500D01*
X151394587Y-103965185D01*
X151415228Y-103981818D01*
X151892271Y-104458862D01*
X152262197Y-104828788D01*
X152272022Y-104841051D01*
X152272243Y-104840869D01*
X152277211Y-104846874D01*
X152326222Y-104892899D01*
X152329021Y-104895612D01*
X152348522Y-104915114D01*
X152348526Y-104915117D01*
X152348529Y-104915120D01*
X152351702Y-104917581D01*
X152360574Y-104925159D01*
X152392418Y-104955062D01*
X152409976Y-104964714D01*
X152426235Y-104975395D01*
X152442064Y-104987673D01*
X152482155Y-105005021D01*
X152492626Y-105010151D01*
X152515180Y-105022550D01*
X152530902Y-105031194D01*
X152530904Y-105031195D01*
X152530908Y-105031197D01*
X152550316Y-105036180D01*
X152568719Y-105042481D01*
X152587101Y-105050436D01*
X152587102Y-105050436D01*
X152587104Y-105050437D01*
X152630250Y-105057270D01*
X152641672Y-105059636D01*
X152683981Y-105070500D01*
X152704016Y-105070500D01*
X152723414Y-105072026D01*
X152743194Y-105075159D01*
X152743195Y-105075160D01*
X152743195Y-105075159D01*
X152743196Y-105075160D01*
X152786675Y-105071050D01*
X152798344Y-105070500D01*
X153985644Y-105070500D01*
X154001264Y-105072224D01*
X154001291Y-105071939D01*
X154009047Y-105072671D01*
X154009054Y-105072673D01*
X154076260Y-105070561D01*
X154080155Y-105070500D01*
X154107733Y-105070500D01*
X154107737Y-105070500D01*
X154111711Y-105069997D01*
X154123350Y-105069080D01*
X154167014Y-105067709D01*
X154186256Y-105062117D01*
X154205299Y-105058174D01*
X154225179Y-105055664D01*
X154265788Y-105039585D01*
X154276831Y-105035803D01*
X154318777Y-105023618D01*
X154336016Y-105013422D01*
X154353490Y-105004862D01*
X154372114Y-104997488D01*
X154372114Y-104997487D01*
X154372119Y-104997486D01*
X154407470Y-104971800D01*
X154417201Y-104965408D01*
X154454807Y-104943170D01*
X154468976Y-104928999D01*
X154483766Y-104916368D01*
X154499974Y-104904594D01*
X154527825Y-104870926D01*
X154535666Y-104862309D01*
X155866159Y-103531819D01*
X155927482Y-103498334D01*
X155953840Y-103495500D01*
X173540459Y-103495500D01*
X173607498Y-103515185D01*
X173653253Y-103567989D01*
X173655874Y-103574166D01*
X173678432Y-103631643D01*
X173678434Y-103631647D01*
X173718304Y-103700703D01*
X173809614Y-103858857D01*
X173878710Y-103945500D01*
X173973198Y-104063985D01*
X174154753Y-104232441D01*
X174165521Y-104242433D01*
X174382296Y-104390228D01*
X174382301Y-104390230D01*
X174382302Y-104390231D01*
X174382303Y-104390232D01*
X174507843Y-104450688D01*
X174618673Y-104504061D01*
X174618674Y-104504061D01*
X174618677Y-104504063D01*
X174869385Y-104581396D01*
X175128818Y-104620500D01*
X175391182Y-104620500D01*
X175650615Y-104581396D01*
X175901323Y-104504063D01*
X176137704Y-104390228D01*
X176354479Y-104242433D01*
X176546805Y-104063981D01*
X176710386Y-103858857D01*
X176841568Y-103631643D01*
X176937420Y-103387416D01*
X176995802Y-103131630D01*
X177015408Y-102870000D01*
X176995802Y-102608370D01*
X176937420Y-102352584D01*
X176841568Y-102108357D01*
X176710386Y-101881143D01*
X176546805Y-101676019D01*
X176546804Y-101676018D01*
X176546801Y-101676014D01*
X176354479Y-101497567D01*
X176137704Y-101349772D01*
X176137700Y-101349770D01*
X176137697Y-101349768D01*
X176137696Y-101349767D01*
X175901325Y-101235938D01*
X175901327Y-101235938D01*
X175650623Y-101158606D01*
X175650619Y-101158605D01*
X175650615Y-101158604D01*
X175525823Y-101139794D01*
X175391187Y-101119500D01*
X175391182Y-101119500D01*
X175128818Y-101119500D01*
X175128812Y-101119500D01*
X174967247Y-101143853D01*
X174869385Y-101158604D01*
X174869382Y-101158605D01*
X174869376Y-101158606D01*
X174618673Y-101235938D01*
X174382303Y-101349767D01*
X174382302Y-101349768D01*
X174165520Y-101497567D01*
X173973198Y-101676014D01*
X173809614Y-101881143D01*
X173678434Y-102108352D01*
X173678432Y-102108356D01*
X173678432Y-102108357D01*
X173655885Y-102165803D01*
X173613072Y-102221015D01*
X173547202Y-102244317D01*
X173540459Y-102244500D01*
X171740221Y-102244500D01*
X171673182Y-102224815D01*
X171627427Y-102172011D01*
X171617483Y-102102853D01*
X171646508Y-102039297D01*
X171657043Y-102028535D01*
X171685470Y-102002824D01*
X171801333Y-101898032D01*
X171995865Y-101667939D01*
X172157993Y-101413970D01*
X172284823Y-101140658D01*
X172374093Y-100852879D01*
X172424209Y-100555770D01*
X172434277Y-100254631D01*
X172404118Y-99954838D01*
X172334269Y-99661739D01*
X172225977Y-99380566D01*
X172081175Y-99116335D01*
X171902446Y-98873762D01*
X171692980Y-98657176D01*
X171569742Y-98559856D01*
X171456521Y-98470446D01*
X171456517Y-98470443D01*
X171456515Y-98470442D01*
X171197270Y-98316891D01*
X170919872Y-98199264D01*
X170919863Y-98199261D01*
X170629272Y-98119660D01*
X170554616Y-98109620D01*
X170330653Y-98079500D01*
X170104756Y-98079500D01*
X170104748Y-98079500D01*
X169879368Y-98094587D01*
X169879359Y-98094589D01*
X169584094Y-98154604D01*
X169299464Y-98253439D01*
X169299459Y-98253441D01*
X169030546Y-98389328D01*
X168782125Y-98559860D01*
X168558665Y-98761969D01*
X168364132Y-98992064D01*
X168202006Y-99246030D01*
X168202005Y-99246032D01*
X168075181Y-99519333D01*
X168075177Y-99519342D01*
X168075176Y-99519346D01*
X167985907Y-99807118D01*
X167935791Y-100104230D01*
X167925723Y-100405373D01*
X167955881Y-100705160D01*
X167955882Y-100705162D01*
X168025728Y-100998252D01*
X168025733Y-100998266D01*
X168134020Y-101279427D01*
X168134024Y-101279436D01*
X168278825Y-101543665D01*
X168278829Y-101543671D01*
X168376340Y-101676014D01*
X168457554Y-101786238D01*
X168667020Y-102002824D01*
X168692803Y-102023185D01*
X168733217Y-102080180D01*
X168736400Y-102149977D01*
X168701343Y-102210416D01*
X168639176Y-102242306D01*
X168615955Y-102244500D01*
X155726124Y-102244500D01*
X155710507Y-102242776D01*
X155710480Y-102243062D01*
X155702718Y-102242327D01*
X155635531Y-102244439D01*
X155631637Y-102244500D01*
X155604037Y-102244500D01*
X155600349Y-102244965D01*
X155600036Y-102245005D01*
X155588418Y-102245918D01*
X155544759Y-102247290D01*
X155544756Y-102247291D01*
X155525513Y-102252881D01*
X155506470Y-102256825D01*
X155486591Y-102259336D01*
X155486590Y-102259337D01*
X155445980Y-102275415D01*
X155434935Y-102279197D01*
X155392995Y-102291383D01*
X155392991Y-102291385D01*
X155375752Y-102301580D01*
X155358285Y-102310137D01*
X155339656Y-102317512D01*
X155339654Y-102317514D01*
X155304313Y-102343189D01*
X155294554Y-102349600D01*
X155255706Y-102372575D01*
X155187982Y-102389758D01*
X155121719Y-102367599D01*
X155077956Y-102313133D01*
X155077156Y-102311145D01*
X154997568Y-102108357D01*
X154866386Y-101881143D01*
X154702805Y-101676019D01*
X154702804Y-101676018D01*
X154702801Y-101676014D01*
X154510479Y-101497567D01*
X154293704Y-101349772D01*
X154293700Y-101349770D01*
X154293697Y-101349768D01*
X154293696Y-101349767D01*
X154057325Y-101235938D01*
X154057327Y-101235938D01*
X153806623Y-101158606D01*
X153806619Y-101158605D01*
X153806615Y-101158604D01*
X153681823Y-101139794D01*
X153547187Y-101119500D01*
X153547182Y-101119500D01*
X153284818Y-101119500D01*
X153284812Y-101119500D01*
X153123247Y-101143853D01*
X153025385Y-101158604D01*
X153025382Y-101158605D01*
X153025376Y-101158606D01*
X152774673Y-101235938D01*
X152538303Y-101349767D01*
X152538302Y-101349768D01*
X152321520Y-101497567D01*
X152129198Y-101676014D01*
X151965614Y-101881143D01*
X151834434Y-102108352D01*
X151834432Y-102108356D01*
X151834432Y-102108357D01*
X151811885Y-102165803D01*
X151769072Y-102221015D01*
X151703202Y-102244317D01*
X151696459Y-102244500D01*
X149896221Y-102244500D01*
X149829182Y-102224815D01*
X149783427Y-102172011D01*
X149773483Y-102102853D01*
X149802508Y-102039297D01*
X149813043Y-102028535D01*
X149841470Y-102002824D01*
X149957333Y-101898032D01*
X150151865Y-101667939D01*
X150313993Y-101413970D01*
X150440823Y-101140658D01*
X150530093Y-100852879D01*
X150580209Y-100555770D01*
X150590277Y-100254631D01*
X150560118Y-99954838D01*
X150490269Y-99661739D01*
X150381977Y-99380566D01*
X150237175Y-99116335D01*
X150058446Y-98873762D01*
X149848980Y-98657176D01*
X149725742Y-98559856D01*
X149612521Y-98470446D01*
X149612517Y-98470443D01*
X149612515Y-98470442D01*
X149353270Y-98316891D01*
X149075872Y-98199264D01*
X149075863Y-98199261D01*
X148785272Y-98119660D01*
X148710616Y-98109620D01*
X148486653Y-98079500D01*
X148260756Y-98079500D01*
X148260748Y-98079500D01*
X148035368Y-98094587D01*
X148035359Y-98094589D01*
X147740094Y-98154604D01*
X147455464Y-98253439D01*
X147455459Y-98253441D01*
X147186546Y-98389328D01*
X146938125Y-98559860D01*
X146714665Y-98761969D01*
X146520132Y-98992064D01*
X146358006Y-99246030D01*
X146358005Y-99246032D01*
X146231181Y-99519333D01*
X146231177Y-99519342D01*
X146231176Y-99519346D01*
X146141907Y-99807118D01*
X146091791Y-100104230D01*
X146081723Y-100405373D01*
X146111881Y-100705160D01*
X146111882Y-100705162D01*
X146181728Y-100998252D01*
X146181733Y-100998266D01*
X146290020Y-101279427D01*
X146290024Y-101279436D01*
X146434825Y-101543665D01*
X146434829Y-101543671D01*
X146532340Y-101676014D01*
X146613554Y-101786238D01*
X146823020Y-102002824D01*
X146848803Y-102023185D01*
X146889217Y-102080180D01*
X146892400Y-102149977D01*
X146857343Y-102210416D01*
X146795176Y-102242306D01*
X146771955Y-102244500D01*
X122072743Y-102244500D01*
X122057122Y-102242775D01*
X122057096Y-102243061D01*
X122049334Y-102242327D01*
X122049333Y-102242327D01*
X122025945Y-102243062D01*
X121982127Y-102244439D01*
X121978232Y-102244500D01*
X121950647Y-102244500D01*
X121946661Y-102245003D01*
X121935033Y-102245918D01*
X121891373Y-102247290D01*
X121872129Y-102252881D01*
X121853079Y-102256825D01*
X121833211Y-102259334D01*
X121833210Y-102259334D01*
X121792599Y-102275413D01*
X121781554Y-102279194D01*
X121739614Y-102291379D01*
X121739610Y-102291381D01*
X121722366Y-102301579D01*
X121704905Y-102310133D01*
X121686274Y-102317510D01*
X121686262Y-102317517D01*
X121650933Y-102343185D01*
X121641173Y-102349596D01*
X121603580Y-102371829D01*
X121589414Y-102385995D01*
X121574624Y-102398627D01*
X121558414Y-102410404D01*
X121558411Y-102410407D01*
X121530573Y-102444058D01*
X121522711Y-102452697D01*
X117389866Y-106585541D01*
X117328543Y-106619026D01*
X117261927Y-106615143D01*
X117249143Y-106610754D01*
X117024085Y-106573200D01*
X116930751Y-106573200D01*
X116863712Y-106553515D01*
X116817957Y-106500711D01*
X116808013Y-106431553D01*
X116837038Y-106367997D01*
X116843070Y-106361519D01*
X126022772Y-97181819D01*
X126084095Y-97148334D01*
X126110453Y-97145500D01*
X149156459Y-97145500D01*
X149223498Y-97165185D01*
X149269253Y-97217989D01*
X149271874Y-97224166D01*
X149294432Y-97281643D01*
X149425614Y-97508857D01*
X149557736Y-97674533D01*
X149589198Y-97713985D01*
X149770753Y-97882441D01*
X149781521Y-97892433D01*
X149998296Y-98040228D01*
X149998301Y-98040230D01*
X149998302Y-98040231D01*
X149998303Y-98040232D01*
X150079845Y-98079500D01*
X150234673Y-98154061D01*
X150234674Y-98154061D01*
X150234677Y-98154063D01*
X150485385Y-98231396D01*
X150744818Y-98270500D01*
X151007182Y-98270500D01*
X151266615Y-98231396D01*
X151517323Y-98154063D01*
X151753704Y-98040228D01*
X151970479Y-97892433D01*
X152162805Y-97713981D01*
X152326386Y-97508857D01*
X152457568Y-97281643D01*
X152480114Y-97224196D01*
X152522928Y-97168985D01*
X152588798Y-97145683D01*
X152595541Y-97145500D01*
X171000459Y-97145500D01*
X171067498Y-97165185D01*
X171113253Y-97217989D01*
X171115874Y-97224166D01*
X171138432Y-97281643D01*
X171269614Y-97508857D01*
X171401736Y-97674533D01*
X171433198Y-97713985D01*
X171614753Y-97882441D01*
X171625521Y-97892433D01*
X171842296Y-98040228D01*
X171842301Y-98040230D01*
X171842302Y-98040231D01*
X171842303Y-98040232D01*
X171923845Y-98079500D01*
X172078673Y-98154061D01*
X172078674Y-98154061D01*
X172078677Y-98154063D01*
X172329385Y-98231396D01*
X172588818Y-98270500D01*
X172851182Y-98270500D01*
X173110615Y-98231396D01*
X173361323Y-98154063D01*
X173597704Y-98040228D01*
X173814479Y-97892433D01*
X174006805Y-97713981D01*
X174170386Y-97508857D01*
X174301568Y-97281643D01*
X174397420Y-97037416D01*
X174455802Y-96781630D01*
X174475408Y-96520000D01*
X174455802Y-96258370D01*
X174397420Y-96002584D01*
X174301568Y-95758357D01*
X174170386Y-95531143D01*
X174006805Y-95326019D01*
X174006804Y-95326018D01*
X174006801Y-95326014D01*
X173814479Y-95147567D01*
X173597704Y-94999772D01*
X173597700Y-94999770D01*
X173597697Y-94999768D01*
X173597696Y-94999767D01*
X173361325Y-94885938D01*
X173361327Y-94885938D01*
X173110623Y-94808606D01*
X173110619Y-94808605D01*
X173110615Y-94808604D01*
X172985823Y-94789794D01*
X172851187Y-94769500D01*
X172851182Y-94769500D01*
X172588818Y-94769500D01*
X172588812Y-94769500D01*
X172427247Y-94793853D01*
X172329385Y-94808604D01*
X172329382Y-94808605D01*
X172329376Y-94808606D01*
X172078673Y-94885938D01*
X171842303Y-94999767D01*
X171842302Y-94999768D01*
X171625520Y-95147567D01*
X171511106Y-95253728D01*
X171448573Y-95284896D01*
X171379117Y-95277309D01*
X171324788Y-95233375D01*
X171302905Y-95168729D01*
X171299112Y-95089098D01*
X171277441Y-94999767D01*
X171248437Y-94880210D01*
X171159146Y-94684690D01*
X171034466Y-94509601D01*
X171034464Y-94509599D01*
X171034459Y-94509593D01*
X170878905Y-94361274D01*
X170698080Y-94245065D01*
X170498530Y-94165177D01*
X170287473Y-94124500D01*
X170287472Y-94124500D01*
X170126382Y-94124500D01*
X169966029Y-94139812D01*
X169966025Y-94139813D01*
X169759793Y-94200368D01*
X169568736Y-94298864D01*
X169399785Y-94431729D01*
X169399782Y-94431733D01*
X169259021Y-94594178D01*
X169151553Y-94780319D01*
X169081251Y-94983442D01*
X169081250Y-94983444D01*
X169050661Y-95196200D01*
X169050660Y-95196202D01*
X169060887Y-95410901D01*
X169060888Y-95410904D01*
X169111563Y-95619790D01*
X169156866Y-95718989D01*
X169166809Y-95788147D01*
X169137784Y-95851703D01*
X169079005Y-95889477D01*
X169044071Y-95894500D01*
X152595541Y-95894500D01*
X152528502Y-95874815D01*
X152482747Y-95822011D01*
X152480125Y-95815833D01*
X152457568Y-95758357D01*
X152326386Y-95531143D01*
X152162805Y-95326019D01*
X152162804Y-95326018D01*
X152162801Y-95326014D01*
X151970479Y-95147567D01*
X151753704Y-94999772D01*
X151753700Y-94999770D01*
X151753697Y-94999768D01*
X151753696Y-94999767D01*
X151517325Y-94885938D01*
X151517327Y-94885938D01*
X151266623Y-94808606D01*
X151266619Y-94808605D01*
X151266615Y-94808604D01*
X151141823Y-94789794D01*
X151007187Y-94769500D01*
X151007182Y-94769500D01*
X150744818Y-94769500D01*
X150744812Y-94769500D01*
X150583247Y-94793853D01*
X150485385Y-94808604D01*
X150485382Y-94808605D01*
X150485376Y-94808606D01*
X150234673Y-94885938D01*
X149998303Y-94999767D01*
X149998302Y-94999768D01*
X149781520Y-95147567D01*
X149667106Y-95253728D01*
X149604573Y-95284896D01*
X149535117Y-95277309D01*
X149480788Y-95233375D01*
X149458905Y-95168729D01*
X149455112Y-95089098D01*
X149433441Y-94999767D01*
X149404437Y-94880210D01*
X149315146Y-94684690D01*
X149190466Y-94509601D01*
X149190464Y-94509599D01*
X149190459Y-94509593D01*
X149034905Y-94361274D01*
X148854080Y-94245065D01*
X148654530Y-94165177D01*
X148443473Y-94124500D01*
X148443472Y-94124500D01*
X148282382Y-94124500D01*
X148122029Y-94139812D01*
X148122025Y-94139813D01*
X147915793Y-94200368D01*
X147724736Y-94298864D01*
X147555785Y-94431729D01*
X147555782Y-94431733D01*
X147415021Y-94594178D01*
X147307553Y-94780319D01*
X147237251Y-94983442D01*
X147237250Y-94983444D01*
X147206661Y-95196200D01*
X147206660Y-95196202D01*
X147216887Y-95410901D01*
X147216888Y-95410904D01*
X147267563Y-95619790D01*
X147312866Y-95718989D01*
X147322809Y-95788147D01*
X147293784Y-95851703D01*
X147235005Y-95889477D01*
X147200071Y-95894500D01*
X125882743Y-95894500D01*
X125867122Y-95892775D01*
X125867096Y-95893061D01*
X125859334Y-95892327D01*
X125859333Y-95892327D01*
X125797109Y-95894282D01*
X125792127Y-95894439D01*
X125788232Y-95894500D01*
X125760647Y-95894500D01*
X125756661Y-95895003D01*
X125745033Y-95895918D01*
X125701373Y-95897290D01*
X125682129Y-95902881D01*
X125663079Y-95906825D01*
X125643211Y-95909334D01*
X125643210Y-95909334D01*
X125602599Y-95925413D01*
X125591554Y-95929194D01*
X125549614Y-95941379D01*
X125549610Y-95941381D01*
X125532366Y-95951579D01*
X125514905Y-95960133D01*
X125496274Y-95967510D01*
X125496262Y-95967517D01*
X125460933Y-95993185D01*
X125451173Y-95999596D01*
X125413580Y-96021829D01*
X125399414Y-96035995D01*
X125384624Y-96048627D01*
X125368414Y-96060404D01*
X125368411Y-96060407D01*
X125340573Y-96094058D01*
X125332711Y-96102697D01*
X114849866Y-106585541D01*
X114788543Y-106619026D01*
X114721927Y-106615143D01*
X114709143Y-106610754D01*
X114484085Y-106573200D01*
X114255915Y-106573200D01*
X114030854Y-106610755D01*
X113815057Y-106684839D01*
X113815049Y-106684842D01*
X113614379Y-106793440D01*
X113434323Y-106933582D01*
X113434319Y-106933586D01*
X113279787Y-107101451D01*
X113203809Y-107217746D01*
X113150663Y-107263103D01*
X113081431Y-107272527D01*
X113018095Y-107243025D01*
X112996191Y-107217746D01*
X112920212Y-107101451D01*
X112765680Y-106933586D01*
X112765676Y-106933582D01*
X112585620Y-106793440D01*
X112585619Y-106793439D01*
X112384950Y-106684842D01*
X112384942Y-106684839D01*
X112169145Y-106610755D01*
X111944085Y-106573200D01*
X111715915Y-106573200D01*
X111490854Y-106610755D01*
X111275057Y-106684839D01*
X111275049Y-106684842D01*
X111074379Y-106793440D01*
X110894323Y-106933582D01*
X110894319Y-106933586D01*
X110739787Y-107101451D01*
X110663809Y-107217746D01*
X110610663Y-107263103D01*
X110541431Y-107272527D01*
X110478095Y-107243025D01*
X110456191Y-107217746D01*
X110380212Y-107101451D01*
X110225680Y-106933586D01*
X110225676Y-106933582D01*
X110045620Y-106793440D01*
X110045619Y-106793439D01*
X109844950Y-106684842D01*
X109844942Y-106684839D01*
X109629145Y-106610755D01*
X109404085Y-106573200D01*
X109175915Y-106573200D01*
X108950854Y-106610755D01*
X108735057Y-106684839D01*
X108735049Y-106684842D01*
X108534379Y-106793440D01*
X108354324Y-106933581D01*
X108315997Y-106975216D01*
X108256110Y-107011206D01*
X108186272Y-107009105D01*
X108128656Y-106969580D01*
X108108586Y-106934565D01*
X108070097Y-106831371D01*
X108070093Y-106831364D01*
X107983847Y-106716155D01*
X107983844Y-106716152D01*
X107868635Y-106629906D01*
X107868628Y-106629902D01*
X107733782Y-106579608D01*
X107733783Y-106579608D01*
X107674183Y-106573201D01*
X107674181Y-106573200D01*
X107674173Y-106573200D01*
X107674164Y-106573200D01*
X105825829Y-106573200D01*
X105825823Y-106573201D01*
X105766216Y-106579608D01*
X105631371Y-106629902D01*
X105631364Y-106629906D01*
X105516155Y-106716152D01*
X105516152Y-106716155D01*
X105429906Y-106831364D01*
X105429902Y-106831371D01*
X105379608Y-106966217D01*
X105373201Y-107025816D01*
X105373200Y-107025835D01*
X105373200Y-108874170D01*
X102175500Y-108874170D01*
X102175500Y-92710005D01*
X105368481Y-92710005D01*
X105387321Y-92937383D01*
X105387323Y-92937391D01*
X105443335Y-93158577D01*
X105534989Y-93367529D01*
X105659787Y-93558548D01*
X105814319Y-93726413D01*
X105814323Y-93726417D01*
X105994381Y-93866561D01*
X106195050Y-93975158D01*
X106410857Y-94049245D01*
X106635915Y-94086800D01*
X106864085Y-94086800D01*
X107089143Y-94049245D01*
X107304950Y-93975158D01*
X107505619Y-93866561D01*
X107685677Y-93726417D01*
X107840213Y-93558547D01*
X107916191Y-93442252D01*
X107969337Y-93396896D01*
X108038568Y-93387472D01*
X108101904Y-93416973D01*
X108123809Y-93442253D01*
X108199787Y-93558548D01*
X108354319Y-93726413D01*
X108354323Y-93726417D01*
X108534381Y-93866561D01*
X108735050Y-93975158D01*
X108950857Y-94049245D01*
X109175915Y-94086800D01*
X109404085Y-94086800D01*
X109629143Y-94049245D01*
X109844950Y-93975158D01*
X110045619Y-93866561D01*
X110225677Y-93726417D01*
X110380213Y-93558547D01*
X110456191Y-93442252D01*
X110509337Y-93396896D01*
X110578568Y-93387472D01*
X110641904Y-93416973D01*
X110663809Y-93442253D01*
X110739787Y-93558548D01*
X110894319Y-93726413D01*
X110894323Y-93726417D01*
X111074381Y-93866561D01*
X111275050Y-93975158D01*
X111490857Y-94049245D01*
X111715915Y-94086800D01*
X111944085Y-94086800D01*
X112169143Y-94049245D01*
X112384950Y-93975158D01*
X112585619Y-93866561D01*
X112765677Y-93726417D01*
X112920213Y-93558547D01*
X112996191Y-93442252D01*
X113049337Y-93396896D01*
X113118568Y-93387472D01*
X113181904Y-93416973D01*
X113203809Y-93442253D01*
X113279787Y-93558548D01*
X113434319Y-93726413D01*
X113434323Y-93726417D01*
X113614381Y-93866561D01*
X113815050Y-93975158D01*
X114030857Y-94049245D01*
X114255915Y-94086800D01*
X114484085Y-94086800D01*
X114709143Y-94049245D01*
X114924950Y-93975158D01*
X115125619Y-93866561D01*
X115305677Y-93726417D01*
X115460213Y-93558547D01*
X115536191Y-93442252D01*
X115589337Y-93396896D01*
X115658568Y-93387472D01*
X115721904Y-93416973D01*
X115743809Y-93442253D01*
X115819787Y-93558548D01*
X115974319Y-93726413D01*
X115974323Y-93726417D01*
X116154381Y-93866561D01*
X116355050Y-93975158D01*
X116570857Y-94049245D01*
X116795915Y-94086800D01*
X117024085Y-94086800D01*
X117249143Y-94049245D01*
X117464950Y-93975158D01*
X117665619Y-93866561D01*
X117845677Y-93726417D01*
X118000213Y-93558547D01*
X118076191Y-93442252D01*
X118129337Y-93396896D01*
X118198568Y-93387472D01*
X118261904Y-93416973D01*
X118283809Y-93442253D01*
X118359787Y-93558548D01*
X118514319Y-93726413D01*
X118514323Y-93726417D01*
X118694381Y-93866561D01*
X118895050Y-93975158D01*
X119110857Y-94049245D01*
X119335915Y-94086800D01*
X119564085Y-94086800D01*
X119789143Y-94049245D01*
X120004950Y-93975158D01*
X120205619Y-93866561D01*
X120385677Y-93726417D01*
X120540213Y-93558547D01*
X120616191Y-93442252D01*
X120669337Y-93396896D01*
X120738568Y-93387472D01*
X120801904Y-93416973D01*
X120823809Y-93442253D01*
X120899787Y-93558548D01*
X121054319Y-93726413D01*
X121054323Y-93726417D01*
X121234381Y-93866561D01*
X121435050Y-93975158D01*
X121650857Y-94049245D01*
X121875915Y-94086800D01*
X122104085Y-94086800D01*
X122329143Y-94049245D01*
X122544950Y-93975158D01*
X122745619Y-93866561D01*
X122925677Y-93726417D01*
X123080213Y-93558547D01*
X123156191Y-93442252D01*
X123209337Y-93396896D01*
X123278568Y-93387472D01*
X123341904Y-93416973D01*
X123363809Y-93442253D01*
X123439787Y-93558548D01*
X123594319Y-93726413D01*
X123594323Y-93726417D01*
X123774381Y-93866561D01*
X123975050Y-93975158D01*
X124190857Y-94049245D01*
X124415915Y-94086800D01*
X124644085Y-94086800D01*
X124869143Y-94049245D01*
X125084950Y-93975158D01*
X125285619Y-93866561D01*
X125465677Y-93726417D01*
X125620213Y-93558547D01*
X125696191Y-93442252D01*
X125749337Y-93396896D01*
X125818568Y-93387472D01*
X125881904Y-93416973D01*
X125903809Y-93442253D01*
X125979787Y-93558548D01*
X126134319Y-93726413D01*
X126134323Y-93726417D01*
X126314381Y-93866561D01*
X126515050Y-93975158D01*
X126730857Y-94049245D01*
X126955915Y-94086800D01*
X127184085Y-94086800D01*
X127409143Y-94049245D01*
X127624950Y-93975158D01*
X127825619Y-93866561D01*
X128005677Y-93726417D01*
X128160213Y-93558547D01*
X128236191Y-93442252D01*
X128289337Y-93396896D01*
X128358568Y-93387472D01*
X128421904Y-93416973D01*
X128443809Y-93442253D01*
X128519787Y-93558548D01*
X128674319Y-93726413D01*
X128674323Y-93726417D01*
X128854381Y-93866561D01*
X129055050Y-93975158D01*
X129270857Y-94049245D01*
X129495915Y-94086800D01*
X129724085Y-94086800D01*
X129949143Y-94049245D01*
X130164950Y-93975158D01*
X130365619Y-93866561D01*
X130545677Y-93726417D01*
X130700213Y-93558547D01*
X130776191Y-93442252D01*
X130829337Y-93396896D01*
X130898568Y-93387472D01*
X130961904Y-93416973D01*
X130983809Y-93442253D01*
X131059787Y-93558548D01*
X131214319Y-93726413D01*
X131214323Y-93726417D01*
X131394381Y-93866561D01*
X131595050Y-93975158D01*
X131810857Y-94049245D01*
X132035915Y-94086800D01*
X132264085Y-94086800D01*
X132489143Y-94049245D01*
X132704950Y-93975158D01*
X132905619Y-93866561D01*
X133085677Y-93726417D01*
X133240213Y-93558547D01*
X133316191Y-93442252D01*
X133369337Y-93396896D01*
X133438568Y-93387472D01*
X133501904Y-93416973D01*
X133523809Y-93442253D01*
X133599787Y-93558548D01*
X133754319Y-93726413D01*
X133754323Y-93726417D01*
X133934381Y-93866561D01*
X134135050Y-93975158D01*
X134350857Y-94049245D01*
X134575915Y-94086800D01*
X134804085Y-94086800D01*
X135029143Y-94049245D01*
X135244950Y-93975158D01*
X135445619Y-93866561D01*
X135625677Y-93726417D01*
X135780213Y-93558547D01*
X135905010Y-93367530D01*
X135996664Y-93158578D01*
X136052677Y-92937391D01*
X136071519Y-92710000D01*
X136052677Y-92482609D01*
X135996664Y-92261422D01*
X135905010Y-92052470D01*
X135780213Y-91861453D01*
X135780212Y-91861451D01*
X135625680Y-91693586D01*
X135625676Y-91693582D01*
X135445620Y-91553440D01*
X135445619Y-91553439D01*
X135244950Y-91444842D01*
X135244942Y-91444839D01*
X135029145Y-91370755D01*
X134804085Y-91333200D01*
X134575915Y-91333200D01*
X134350854Y-91370755D01*
X134135057Y-91444839D01*
X134135049Y-91444842D01*
X133934379Y-91553440D01*
X133754323Y-91693582D01*
X133754319Y-91693586D01*
X133599787Y-91861451D01*
X133523809Y-91977746D01*
X133470663Y-92023103D01*
X133401431Y-92032527D01*
X133338095Y-92003025D01*
X133316191Y-91977746D01*
X133240212Y-91861451D01*
X133085680Y-91693586D01*
X133085676Y-91693582D01*
X132905620Y-91553440D01*
X132905619Y-91553439D01*
X132704950Y-91444842D01*
X132704942Y-91444839D01*
X132489145Y-91370755D01*
X132264085Y-91333200D01*
X132035915Y-91333200D01*
X131810854Y-91370755D01*
X131595057Y-91444839D01*
X131595049Y-91444842D01*
X131394379Y-91553440D01*
X131214323Y-91693582D01*
X131214319Y-91693586D01*
X131059787Y-91861451D01*
X130983809Y-91977746D01*
X130930663Y-92023103D01*
X130861431Y-92032527D01*
X130798095Y-92003025D01*
X130776191Y-91977746D01*
X130700212Y-91861451D01*
X130545680Y-91693586D01*
X130545676Y-91693582D01*
X130365620Y-91553440D01*
X130365619Y-91553439D01*
X130164950Y-91444842D01*
X130164942Y-91444839D01*
X129949145Y-91370755D01*
X129724085Y-91333200D01*
X129495915Y-91333200D01*
X129270854Y-91370755D01*
X129055057Y-91444839D01*
X129055049Y-91444842D01*
X128854379Y-91553440D01*
X128674323Y-91693582D01*
X128674319Y-91693586D01*
X128519787Y-91861451D01*
X128443809Y-91977746D01*
X128390663Y-92023103D01*
X128321431Y-92032527D01*
X128258095Y-92003025D01*
X128236191Y-91977746D01*
X128160212Y-91861451D01*
X128005680Y-91693586D01*
X128005676Y-91693582D01*
X127825620Y-91553440D01*
X127825619Y-91553439D01*
X127624950Y-91444842D01*
X127624942Y-91444839D01*
X127409145Y-91370755D01*
X127184085Y-91333200D01*
X126955915Y-91333200D01*
X126730854Y-91370755D01*
X126515057Y-91444839D01*
X126515049Y-91444842D01*
X126314379Y-91553440D01*
X126134323Y-91693582D01*
X126134319Y-91693586D01*
X125979787Y-91861451D01*
X125903809Y-91977746D01*
X125850663Y-92023103D01*
X125781431Y-92032527D01*
X125718095Y-92003025D01*
X125696191Y-91977746D01*
X125620212Y-91861451D01*
X125465680Y-91693586D01*
X125465676Y-91693582D01*
X125285620Y-91553440D01*
X125285619Y-91553439D01*
X125084950Y-91444842D01*
X125084942Y-91444839D01*
X124869145Y-91370755D01*
X124644085Y-91333200D01*
X124415915Y-91333200D01*
X124190854Y-91370755D01*
X123975057Y-91444839D01*
X123975049Y-91444842D01*
X123774379Y-91553440D01*
X123594323Y-91693582D01*
X123594319Y-91693586D01*
X123439787Y-91861451D01*
X123363809Y-91977746D01*
X123310663Y-92023103D01*
X123241431Y-92032527D01*
X123178095Y-92003025D01*
X123156191Y-91977746D01*
X123080212Y-91861451D01*
X122925680Y-91693586D01*
X122925676Y-91693582D01*
X122745620Y-91553440D01*
X122745619Y-91553439D01*
X122544950Y-91444842D01*
X122544942Y-91444839D01*
X122329145Y-91370755D01*
X122104085Y-91333200D01*
X121875915Y-91333200D01*
X121650854Y-91370755D01*
X121435057Y-91444839D01*
X121435049Y-91444842D01*
X121234379Y-91553440D01*
X121054323Y-91693582D01*
X121054319Y-91693586D01*
X120899787Y-91861451D01*
X120823809Y-91977746D01*
X120770663Y-92023103D01*
X120701431Y-92032527D01*
X120638095Y-92003025D01*
X120616191Y-91977746D01*
X120540212Y-91861451D01*
X120385680Y-91693586D01*
X120385676Y-91693582D01*
X120205620Y-91553440D01*
X120205619Y-91553439D01*
X120004950Y-91444842D01*
X120004942Y-91444839D01*
X119789145Y-91370755D01*
X119564085Y-91333200D01*
X119335915Y-91333200D01*
X119110854Y-91370755D01*
X118895057Y-91444839D01*
X118895049Y-91444842D01*
X118694379Y-91553440D01*
X118514323Y-91693582D01*
X118514319Y-91693586D01*
X118359787Y-91861451D01*
X118283809Y-91977746D01*
X118230663Y-92023103D01*
X118161431Y-92032527D01*
X118098095Y-92003025D01*
X118076191Y-91977746D01*
X118000212Y-91861451D01*
X117845680Y-91693586D01*
X117845676Y-91693582D01*
X117665620Y-91553440D01*
X117665619Y-91553439D01*
X117464950Y-91444842D01*
X117464942Y-91444839D01*
X117249145Y-91370755D01*
X117024085Y-91333200D01*
X116795915Y-91333200D01*
X116570854Y-91370755D01*
X116355057Y-91444839D01*
X116355049Y-91444842D01*
X116154379Y-91553440D01*
X115974323Y-91693582D01*
X115974319Y-91693586D01*
X115819787Y-91861451D01*
X115743809Y-91977746D01*
X115690663Y-92023103D01*
X115621431Y-92032527D01*
X115558095Y-92003025D01*
X115536191Y-91977746D01*
X115460212Y-91861451D01*
X115305680Y-91693586D01*
X115305676Y-91693582D01*
X115125620Y-91553440D01*
X115125619Y-91553439D01*
X114924950Y-91444842D01*
X114924942Y-91444839D01*
X114709145Y-91370755D01*
X114484085Y-91333200D01*
X114255915Y-91333200D01*
X114030854Y-91370755D01*
X113815057Y-91444839D01*
X113815049Y-91444842D01*
X113614379Y-91553440D01*
X113434323Y-91693582D01*
X113434319Y-91693586D01*
X113279787Y-91861451D01*
X113203809Y-91977746D01*
X113150663Y-92023103D01*
X113081431Y-92032527D01*
X113018095Y-92003025D01*
X112996191Y-91977746D01*
X112920212Y-91861451D01*
X112765680Y-91693586D01*
X112765676Y-91693582D01*
X112585620Y-91553440D01*
X112585619Y-91553439D01*
X112384950Y-91444842D01*
X112384942Y-91444839D01*
X112169145Y-91370755D01*
X111944085Y-91333200D01*
X111715915Y-91333200D01*
X111490854Y-91370755D01*
X111275057Y-91444839D01*
X111275049Y-91444842D01*
X111074379Y-91553440D01*
X110894323Y-91693582D01*
X110894319Y-91693586D01*
X110739787Y-91861451D01*
X110663809Y-91977746D01*
X110610663Y-92023103D01*
X110541431Y-92032527D01*
X110478095Y-92003025D01*
X110456191Y-91977746D01*
X110380212Y-91861451D01*
X110225680Y-91693586D01*
X110225676Y-91693582D01*
X110045620Y-91553440D01*
X110045619Y-91553439D01*
X109844950Y-91444842D01*
X109844942Y-91444839D01*
X109629145Y-91370755D01*
X109404085Y-91333200D01*
X109175915Y-91333200D01*
X108950854Y-91370755D01*
X108735057Y-91444839D01*
X108735049Y-91444842D01*
X108534379Y-91553440D01*
X108354323Y-91693582D01*
X108354319Y-91693586D01*
X108199787Y-91861451D01*
X108123809Y-91977746D01*
X108070663Y-92023103D01*
X108001431Y-92032527D01*
X107938095Y-92003025D01*
X107916191Y-91977746D01*
X107840212Y-91861451D01*
X107685680Y-91693586D01*
X107685676Y-91693582D01*
X107505620Y-91553440D01*
X107505619Y-91553439D01*
X107304950Y-91444842D01*
X107304942Y-91444839D01*
X107089145Y-91370755D01*
X106864085Y-91333200D01*
X106635915Y-91333200D01*
X106410854Y-91370755D01*
X106195057Y-91444839D01*
X106195049Y-91444842D01*
X105994379Y-91553440D01*
X105814323Y-91693582D01*
X105814319Y-91693586D01*
X105659787Y-91861451D01*
X105534989Y-92052470D01*
X105443335Y-92261422D01*
X105387323Y-92482608D01*
X105387321Y-92482616D01*
X105368481Y-92709994D01*
X105368481Y-92710005D01*
X102175500Y-92710005D01*
X102175500Y-90294500D01*
X102195185Y-90227461D01*
X102247989Y-90181706D01*
X102299500Y-90170500D01*
X180282500Y-90170500D01*
X180349539Y-90190185D01*
G37*
%TD.AperFunction*%
%TA.AperFunction,NonConductor*%
G36*
X122787587Y-103515185D02*
G01*
X122833342Y-103567989D01*
X122843286Y-103637147D01*
X122814261Y-103700703D01*
X122808229Y-103707181D01*
X119929866Y-106585541D01*
X119868543Y-106619026D01*
X119801927Y-106615143D01*
X119789143Y-106610754D01*
X119564085Y-106573200D01*
X119470751Y-106573200D01*
X119403712Y-106553515D01*
X119357957Y-106500711D01*
X119348013Y-106431553D01*
X119377038Y-106367997D01*
X119383070Y-106361519D01*
X119964795Y-105779795D01*
X122212772Y-103531819D01*
X122274095Y-103498334D01*
X122300453Y-103495500D01*
X122720548Y-103495500D01*
X122787587Y-103515185D01*
G37*
%TD.AperFunction*%
M02*
